<?xml version="1.0" encoding="UTF-8" standalone="no"?><!-- Generator: Gravit.io --><svg xmlns="http://www.w3.org/2000/svg" xmlns:xlink="http://www.w3.org/1999/xlink" style="isolation:isolate" viewBox="0 0 24 24" width="24pt" height="24pt"><defs><clipPath id="_clipPath_JzFodZ4skZSn8j8ljOB4ghtbKjVXWbWX"><rect width="24" height="24"/></clipPath></defs><g clip-path="url(#_clipPath_JzFodZ4skZSn8j8ljOB4ghtbKjVXWbWX)"><path d=" M 20.75 10.75 C 20.288 10.75 19.884 11.002 19.668 11.375 L 18.533 11.375 C 18.405 10.034 17.873 8.809 17.059 7.825 L 17.864 7.02 C 18.278 7.131 18.744 7.024 19.071 6.697 C 19.559 6.209 19.559 5.416 19.071 4.929 C 18.584 4.441 17.791 4.441 17.303 4.929 C 16.977 5.255 16.869 5.719 16.98 6.136 L 16.175 6.941 C 15.191 6.127 13.966 5.595 12.625 5.467 L 12.625 4.332 C 12.998 4.116 13.25 3.712 13.25 3.25 C 13.25 2.561 12.689 2 12 2 C 11.311 2 10.75 2.561 10.75 3.25 C 10.75 3.712 11.002 4.116 11.375 4.332 L 11.375 5.467 C 10.034 5.595 8.809 6.127 7.825 6.941 L 7.02 6.136 C 7.131 5.719 7.023 5.255 6.697 4.929 C 6.209 4.441 5.416 4.441 4.929 4.929 C 4.441 5.416 4.441 6.209 4.929 6.697 C 5.256 7.023 5.721 7.131 6.136 7.02 L 6.941 7.825 C 6.127 8.809 5.595 10.034 5.467 11.375 L 4.332 11.375 C 4.116 11.002 3.712 10.75 3.25 10.75 C 2.561 10.75 2 11.311 2 12 C 2 12.689 2.561 13.25 3.25 13.25 C 3.712 13.25 4.116 12.998 4.332 12.625 L 5.467 12.625 C 5.595 13.966 6.127 15.191 6.941 16.175 L 6.136 16.98 C 5.719 16.869 5.255 16.977 4.929 17.303 C 4.441 17.791 4.441 18.584 4.929 19.071 C 5.417 19.559 6.21 19.558 6.697 19.071 C 7.023 18.745 7.131 18.281 7.02 17.864 L 7.825 17.059 C 8.809 17.873 10.034 18.405 11.375 18.533 L 11.375 19.668 C 11.002 19.884 10.75 20.288 10.75 20.75 C 10.75 21.439 11.311 22 12 22 C 12.689 22 13.25 21.439 13.25 20.75 C 13.25 20.288 12.998 19.884 12.625 19.668 L 12.625 18.533 C 13.966 18.405 15.191 17.873 16.175 17.059 L 16.98 17.864 C 16.869 18.281 16.977 18.745 17.303 19.071 C 17.79 19.558 18.583 19.559 19.071 19.071 C 19.559 18.584 19.559 17.791 19.071 17.303 C 18.745 16.977 18.281 16.869 17.864 16.98 L 17.059 16.175 C 17.873 15.191 18.405 13.966 18.533 12.625 L 19.668 12.625 C 19.884 12.998 20.288 13.25 20.75 13.25 C 21.439 13.25 22 12.689 22 12 C 22 11.311 21.439 10.75 20.75 10.75 L 20.75 10.75 Z  M 9.93 11.688 C 9.327 11.688 8.836 11.197 8.836 10.594 C 8.836 9.991 9.327 9.5 9.93 9.5 C 10.533 9.5 11.023 9.991 11.023 10.594 C 11.023 11.197 10.533 11.688 9.93 11.688 Z  M 12.625 15.438 C 11.936 15.438 11.375 14.877 11.375 14.188 C 11.375 13.498 11.936 12.938 12.625 12.938 C 13.314 12.938 13.875 13.498 13.875 14.188 C 13.875 14.877 13.314 15.438 12.625 15.438 Z  M 14.813 11.063 C 14.296 11.063 13.875 10.642 13.875 10.125 C 13.875 9.608 14.296 9.188 14.813 9.188 C 15.329 9.188 15.75 9.608 15.75 10.125 C 15.75 10.642 15.329 11.063 14.813 11.063 Z " fill="rgb(255,255,255)"/></g></svg>